<svg id="Capa_1" data-name="Capa 1" xmlns="http://www.w3.org/2000/svg" viewBox="0 0 450.9 451"><defs><style>.cls-1{fill:#fff;}</style></defs><title>magnifying-glass-white</title><path class="cls-1" d="M447.05,428,337.45,318.4a191.52,191.52,0,0,0,47.2-126.1C384.65,86.2,298.35,0,192.35,0S.05,86.3.05,192.3s86.3,192.3,192.3,192.3a191.52,191.52,0,0,0,126.1-47.2L428.05,447a13.59,13.59,0,0,0,9.5,4,13.17,13.17,0,0,0,9.5-4A13.52,13.52,0,0,0,447.05,428ZM27,192.3C27,101.1,101.15,27,192.25,27s165.3,74.2,165.3,165.3-74.1,165.4-165.3,165.4S27,283.5,27,192.3Z" transform="translate(-0.05 0)"/></svg>